<?xml version="1.0" standalone="no"?>
<!DOCTYPE svg PUBLIC "-//W3C//DTD SVG 20010904//EN"
 "http://www.w3.org/TR/2001/REC-SVG-20010904/DTD/svg10.dtd">
<svg version="1.0" xmlns="http://www.w3.org/2000/svg"
 width="1457.000000pt" height="448.000000pt" viewBox="0 0 1457.000000 448.000000"
 preserveAspectRatio="xMidYMid meet">

<g transform="translate(0.000000,448.000000) scale(0.100000,-0.100000)"
fill="#000000" stroke="none">
<path d="M2140 4463 c-720 -32 -1385 -414 -1779 -1023 -145 -223 -264 -523
-318 -795 -25 -130 -27 -158 -27 -405 -1 -216 3 -284 18 -365 84 -462 274
-844 584 -1176 271 -289 669 -524 1061 -624 185 -47 258 -56 498 -62 327 -7
494 15 765 104 815 266 1412 991 1517 1843 16 122 13 456 -4 575 -72 507 -314
980 -677 1320 -346 324 -779 530 -1238 589 -123 16 -295 24 -400 19z m-324
-1035 c-4 -227 -9 -446 -12 -485 l-6 -73 -359 0 c-197 0 -359 3 -361 8 -3 7
17 955 20 960 1 1 165 2 363 2 l362 0 -7 -412z m1744 132 c-2 -107 -5 -305 -9
-440 l-6 -245 -350 0 -350 0 2 125 c2 69 5 268 9 443 l6 317 350 -2 350 -3 -2
-195z m-880 118 c1 -84 -21 -749 -26 -795 l-5 -53 -336 0 -336 0 6 178 c4 97
9 281 12 407 3 127 8 245 11 263 l5 32 334 0 335 0 0 -32z m-1330 -1078 c214
-26 381 -110 531 -267 169 -177 250 -395 236 -638 -21 -366 -265 -673 -622
-781 -79 -24 -107 -27 -235 -28 -159 -1 -236 15 -364 73 -383 173 -587 614
-471 1015 99 341 377 579 730 626 87 11 102 11 195 0z m2954 -35 c-35 -47
-163 -149 -225 -180 -69 -35 -173 -58 -236 -52 -29 3 -75 17 -103 31 -63 31
-92 32 -165 5 l-57 -21 80 -32 c113 -46 184 -91 262 -166 394 -383 288 -1028
-206 -1261 -234 -111 -504 -99 -729 33 -90 53 -220 183 -273 273 -176 301
-133 676 108 929 38 39 93 87 124 106 30 19 55 38 56 41 0 10 -83 15 -119 8
-16 -3 -48 -22 -71 -42 -70 -60 -104 -71 -217 -75 -74 -3 -118 1 -160 13 -72
21 -253 114 -253 130 0 9 47 14 173 18 192 5 234 15 358 78 41 21 84 39 95 39
34 -1 155 -48 224 -88 l66 -38 53 17 c76 26 204 43 277 36 l64 -6 52 51 c73
70 163 136 202 146 24 7 52 4 107 -10 104 -27 239 -20 374 20 55 17 115 31
133 31 l33 1 -27 -35z"/>
<path d="M1369 3557 c-157 -83 -138 -345 27 -386 47 -12 109 -6 160 15 28 12
32 19 37 66 4 29 7 72 7 96 l0 42 -65 0 -65 0 0 -30 c0 -27 3 -30 30 -30 29 0
30 -2 30 -44 0 -39 -3 -45 -30 -56 -58 -24 -131 7 -156 66 -31 73 -3 179 55
208 36 19 90 21 127 4 23 -11 28 -10 40 7 20 27 18 32 -16 50 -44 23 -129 19
-181 -8z"/>
<path d="M3065 3443 c-9 -43 -29 -133 -45 -200 l-27 -123 33 0 c32 0 33 1 48
68 8 37 18 84 21 105 4 20 10 37 14 37 4 0 23 -48 42 -107 21 -65 41 -108 49
-108 7 0 30 45 54 107 23 59 44 108 47 108 3 0 11 -37 18 -82 19 -129 19 -128
55 -128 l32 0 -35 198 c-32 172 -39 197 -55 197 -14 0 -27 -26 -62 -125 -24
-69 -45 -129 -47 -135 -2 -5 -19 37 -36 95 -18 58 -37 120 -42 138 -7 21 -17
32 -29 32 -14 0 -21 -15 -35 -77z"/>
<path d="M2286 3455 c-41 -22 -55 -44 -56 -88 0 -54 13 -73 76 -108 69 -39 91
-70 76 -104 -10 -21 -19 -25 -52 -25 -23 0 -51 5 -62 11 -22 12 -32 5 -42 -27
-5 -18 -1 -24 25 -33 68 -23 151 -5 183 40 22 32 20 91 -4 122 -11 14 -37 36
-58 48 -85 51 -102 85 -57 115 22 14 32 15 66 5 46 -14 44 -14 53 16 6 19 2
25 -19 33 -38 15 -96 12 -129 -5z"/>
<path d="M1525 2246 c-64 -20 -123 -54 -226 -127 -194 -139 -280 -156 -607
-123 -84 9 -115 -5 -144 -65 -21 -42 -23 -60 -23 -191 1 -132 3 -152 28 -225
109 -313 381 -508 707 -507 208 1 366 67 515 217 150 149 216 307 217 515 1
305 -153 522 -370 519 -31 0 -75 -6 -97 -13z m-552 -352 c80 -40 138 -141 121
-208 -5 -22 -12 -26 -40 -26 -32 0 -34 2 -34 36 0 112 -116 177 -208 116 -29
-19 -52 -62 -52 -98 0 -20 -4 -25 -16 -20 -9 3 -27 6 -41 6 -24 0 -25 2 -18
37 13 72 58 132 120 159 42 18 129 17 168 -2z m738 -87 c59 -32 100 -92 107
-156 6 -69 1 -78 -41 -73 -33 4 -35 6 -31 36 10 66 -52 137 -122 138 -73 1
-119 -36 -134 -107 -6 -27 -10 -30 -40 -27 -43 3 -44 4 -36 45 24 130 180 206
297 144z m-491 -438 c201 -22 373 -44 383 -47 16 -6 14 -12 -17 -49 -47 -55
-128 -107 -207 -133 -54 -19 -80 -21 -161 -18 -85 4 -105 9 -172 41 -89 42
-166 114 -209 195 l-28 52 23 0 c13 0 187 -18 388 -41z"/>
<path d="M3327 1941 l6 -61 -42 0 c-22 0 -44 -1 -48 -2 -4 -2 -11 19 -15 45
-4 27 -9 51 -11 53 -2 3 -16 -29 -32 -71 -15 -41 -28 -75 -29 -75 0 0 -85 -11
-188 -24 -285 -37 -312 -56 -311 -216 4 -369 294 -661 658 -663 119 -1 192 16
300 68 162 78 286 219 342 389 51 155 32 411 -38 500 -59 75 -162 79 -428 17
l-81 -18 -37 51 c-20 28 -40 55 -44 60 -4 4 -5 -19 -2 -53z m421 -212 c49 -24
90 -78 99 -133 6 -36 5 -36 -31 -36 -32 0 -36 3 -36 26 0 16 -13 39 -34 60
-29 29 -41 34 -81 34 -40 0 -52 -5 -81 -34 -29 -29 -34 -41 -34 -80 0 -46 0
-46 -35 -46 -35 0 -35 0 -35 45 0 139 141 225 268 164z m-644 -93 c77 -45 114
-157 55 -164 -22 -3 -27 2 -38 37 -21 70 -89 105 -155 77 -45 -19 -78 -70 -73
-113 3 -29 0 -33 -26 -39 -88 -19 -44 155 51 206 54 28 134 26 186 -4z m626
-347 c0 -25 -56 -102 -110 -153 -72 -66 -146 -97 -251 -104 -85 -5 -165 13
-234 53 -41 25 -132 111 -124 119 4 4 660 93 702 95 9 1 17 -4 17 -10z"/>
<path d="M7743 2775 c-126 -23 -214 -80 -257 -167 -36 -71 -37 -180 -2 -253
38 -83 89 -122 263 -201 113 -52 159 -86 173 -130 36 -107 -133 -170 -303
-113 -34 11 -72 27 -84 35 -13 8 -34 21 -48 30 l-25 16 0 -115 0 -115 38 -15
c104 -41 300 -51 429 -22 90 20 166 72 208 139 28 47 30 55 30 150 0 79 -4
108 -18 135 -36 65 -99 116 -212 170 -163 78 -174 84 -200 111 -53 55 -34 125
41 156 73 31 243 10 322 -38 l32 -20 0 110 0 110 -32 11 c-94 30 -239 37 -355
16z"/>
<path d="M10815 2780 c-203 -37 -348 -174 -402 -382 -19 -75 -21 -240 -4 -313
49 -203 214 -351 417 -373 298 -33 521 121 581 401 20 94 12 247 -17 339 -45
143 -164 267 -298 308 -77 24 -204 33 -277 20z m210 -222 c88 -44 136 -138
143 -277 8 -166 -30 -269 -125 -334 -54 -39 -159 -49 -228 -23 -57 22 -124 96
-150 167 -28 76 -28 232 0 308 22 59 82 134 126 156 72 38 162 39 234 3z"/>
<path d="M5350 2245 l0 -527 243 5 c261 4 306 12 415 65 71 34 171 131 205
197 58 115 77 259 53 393 -36 202 -137 314 -331 368 -47 13 -118 18 -322 21
l-263 5 0 -527z m460 320 c30 -8 73 -27 95 -43 182 -127 158 -472 -39 -570
-54 -27 -151 -44 -227 -40 l-54 3 -3 333 -2 332 87 0 c49 0 113 -7 143 -15z"/>
<path d="M6681 2658 c-23 -62 -108 -297 -190 -523 l-149 -410 121 -3 c66 -1
124 1 128 5 4 4 24 59 44 121 l36 112 187 -2 186 -3 37 -115 38 -115 125 -3
c69 -1 126 1 126 5 0 4 -82 240 -183 523 l-183 515 -141 3 -141 3 -41 -113z
m248 -328 l58 -185 -130 -3 c-71 -1 -131 -1 -133 1 -2 1 24 85 56 185 32 100
62 199 66 219 l8 38 9 -35 c5 -19 35 -118 66 -220z"/>
<path d="M8350 2245 l0 -525 115 0 115 0 0 215 0 215 220 0 220 0 0 -215 0
-216 118 3 117 3 3 523 2 522 -120 0 -120 0 0 -210 0 -210 -220 0 -220 0 0
210 0 210 -115 0 -115 0 0 -525z"/>
<path d="M9500 2246 l0 -526 208 0 c234 0 324 10 397 44 112 51 165 126 173
241 5 88 -8 134 -56 187 -39 44 -92 74 -149 86 l-38 8 50 23 c98 43 154 123
155 217 0 85 -32 140 -108 187 -73 45 -105 50 -374 54 l-258 5 0 -526z m438
330 c39 -20 55 -48 55 -98 0 -45 -23 -82 -66 -108 -25 -16 -50 -20 -114 -20
l-83 0 0 126 0 127 88 -5 c53 -3 100 -12 120 -22z m20 -420 c15 -8 38 -26 52
-41 33 -35 35 -110 4 -152 -38 -51 -74 -64 -181 -66 l-98 -2 -3 138 -3 137
101 0 c67 0 110 -5 128 -14z"/>
<path d="M11677 2252 c-103 -284 -187 -520 -187 -524 0 -5 56 -8 124 -8 l124
0 39 118 38 117 185 3 186 2 39 -120 39 -120 128 0 128 0 -34 93 c-18 50 -102
287 -186 525 l-154 432 -141 0 -140 0 -188 -518z m333 295 c0 -13 27 -106 60
-207 33 -102 60 -188 60 -192 0 -5 -58 -8 -130 -8 -71 0 -130 4 -130 9 0 5 27
93 60 195 33 103 60 198 60 212 0 14 4 23 10 19 6 -3 10 -16 10 -28z"/>
<path d="M12650 2245 l0 -526 118 3 117 3 3 203 c2 201 2 202 25 202 47 0 96
-22 125 -54 16 -19 73 -106 126 -195 l97 -161 136 0 135 0 -14 23 c-8 12 -63
97 -121 188 -96 149 -179 249 -207 249 -23 0 -8 18 28 32 136 56 207 185 181
332 -13 75 -50 131 -110 168 -74 46 -156 58 -411 58 l-228 0 0 -525z m391 345
c89 -17 131 -77 115 -165 -9 -48 -56 -99 -104 -113 -22 -7 -67 -12 -101 -12
l-61 0 0 150 0 150 49 0 c26 0 72 -5 102 -10z"/>
<path d="M13630 2245 l0 -527 248 5 c265 5 314 12 414 63 63 32 159 121 194
181 90 153 98 408 18 566 -33 63 -107 138 -171 170 -103 53 -149 59 -435 64
l-268 5 0 -527z m507 306 c122 -54 179 -161 171 -320 -5 -101 -30 -166 -86
-224 -65 -68 -152 -97 -289 -97 l-63 0 0 336 0 336 108 -4 c83 -3 118 -9 159
-27z"/>
</g>
</svg>
